<svg xmlns="http://www.w3.org/2000/svg" width="1200" height="320" viewBox="0 0 1200 320" role="img" aria-label="vrc-mod-guide — VRChat 改模资源库 · 中文教程 / 素体衣装 / 视频，含 B站与 reddit 本地存档" font-family="Georgia,'Iowan Old Style','Times New Roman',Times,serif"><rect width="1200" height="320" fill="#F4EFE6"/><text x="34" y="44" font-size="12" font-family="ui-monospace,'Cascadia Mono',Consolas,'SF Mono',monospace" font-weight="400" fill="#638aaf" text-anchor="start" letter-spacing="2.0" opacity="0.9">INK LAB / 07 · card · sigil</text><path d="M34.0 56.06 L316.95 53.98 L317.03 54.03 L600.01 54.83 L600.02 54.83 L882.94 56.76 L883.03 56.72 L1166.0 56.01" fill="none" stroke="#638aaf" stroke-width="1.2" stroke-linecap="round" stroke-linejoin="round" opacity="1.0"/><text x="34" y="120" font-size="42" font-family="Georgia,'Iowan Old Style','Times New Roman',Times,serif" font-weight="400" fill="#f0eee6" text-anchor="start">vrc-mod-guide</text><path d="M34.0 132.02 L104.93 128.75 L105.04 128.73 L175.97 134.07 L176.02 134.12 L246.91 133.25 L246.91 133.2 L317.99 131.95" fill="none" stroke="#1fa27d" stroke-width="2.4" stroke-linecap="round" stroke-linejoin="round" opacity="1.0"/><text x="34" y="160" font-size="17" font-family="Georgia,'Iowan Old Style','Times New Roman',Times,serif" font-weight="400" fill="#f0eee6" text-anchor="start" font-style="italic" opacity="0.92">VRChat 改模资源库 · 中文教程 / 素体衣装 / 视频，含 B站与 reddit</text><text x="34" y="186" font-size="17" font-family="Georgia,'Iowan Old Style','Times New Roman',Times,serif" font-weight="400" fill="#f0eee6" text-anchor="start" font-style="italic" opacity="0.92">本地存档</text><path d="M34.06 167.96 L143.07 169.69 L143.05 169.73 L252.03 167.55 L252.04 167.48 L361.01 165.33 L361.08 165.34 L470.04 170.04" fill="none" stroke="#e5c07b" stroke-width="2.0" stroke-linecap="round" stroke-linejoin="round" opacity="1.0"/><text x="34" y="212" font-size="11" font-family="ui-monospace,'Cascadia Mono',Consolas,'SF Mono',monospace" font-weight="400" fill="#638aaf" text-anchor="start" letter-spacing="2.0" opacity="0.9">LANG</text><text x="200" y="212" font-size="13" font-family="ui-monospace,'Cascadia Mono',Consolas,'SF Mono',monospace" font-weight="400" fill="#f0eee6" text-anchor="start" opacity="0.9">JavaScript</text><text x="34" y="236" font-size="11" font-family="ui-monospace,'Cascadia Mono',Consolas,'SF Mono',monospace" font-weight="400" fill="#638aaf" text-anchor="start" letter-spacing="2.0" opacity="0.9">LICENSE</text><text x="200" y="236" font-size="13" font-family="ui-monospace,'Cascadia Mono',Consolas,'SF Mono',monospace" font-weight="400" fill="#f0eee6" text-anchor="start" opacity="0.9">none</text><text x="34" y="260" font-size="11" font-family="ui-monospace,'Cascadia Mono',Consolas,'SF Mono',monospace" font-weight="400" fill="#638aaf" text-anchor="start" letter-spacing="2.0" opacity="0.9">RELEASES</text><text x="200" y="260" font-size="13" font-family="ui-monospace,'Cascadia Mono',Consolas,'SF Mono',monospace" font-weight="400" fill="#f0eee6" text-anchor="start" opacity="0.9">0</text><text x="34" y="284" font-size="11" font-family="ui-monospace,'Cascadia Mono',Consolas,'SF Mono',monospace" font-weight="400" fill="#638aaf" text-anchor="start" letter-spacing="2.0" opacity="0.9">PUSHED</text><text x="200" y="284" font-size="13" font-family="ui-monospace,'Cascadia Mono',Consolas,'SF Mono',monospace" font-weight="400" fill="#f0eee6" text-anchor="start" opacity="0.9">2026-07-10</text><path d="M961.11 147.76 L960.8 150.05 L951.91 181.82 L928.58 206.48 L894.9 212.11 L864.59 198.17 L844.23 172.65 L840.23 140.04 L852.4 108.61 L880.69 88.26 L915.34 89.31 L943.04 108.09 L961.53 136.2" transform="translate(1.6 1.2)" fill="none" stroke="#1fa27d" stroke-width="1.4" stroke-linecap="round" stroke-linejoin="round" opacity="0.3"/><path d="M956.15 148.01 L954.99 150.02 L946.48 178.58 L925.08 199.44 L895.29 205.97 L865.7 196.67 L846.78 171.52 L844.3 140.75 L856.24 111.85 L883.95 98.39 L913.22 97.84 L939.96 111.11 L955.3 137.66" fill="none" stroke="#1fa27d" stroke-width="1.2" stroke-linecap="round" stroke-linejoin="round" opacity="1.0"/><path d="M881.66 131.62 L889.9 141.22 L889.86 141.25 L900.92 151.79 L900.92 151.77 L909.88 161.56 L909.91 161.58 L920.65 170.56" fill="none" stroke="#1fa27d" stroke-width="2.0" stroke-linecap="round" stroke-linejoin="round" opacity="1.0"/><text x="900" y="234" font-size="11" font-family="ui-monospace,'Cascadia Mono',Consolas,'SF Mono',monospace" font-weight="400" fill="#638aaf" text-anchor="middle" letter-spacing="2.0" opacity="0.9">dwgx archive</text><text x="1166" y="252" font-size="30" font-family="Georgia,'Iowan Old Style','Times New Roman',Times,serif" font-weight="400" fill="#1fa27d" text-anchor="end">★4</text><text x="1166" y="274" font-size="11" font-family="ui-monospace,'Cascadia Mono',Consolas,'SF Mono',monospace" font-weight="400" fill="#638aaf" text-anchor="end" letter-spacing="2.0" opacity="0.9">JAVASCRIPT · NONE</text><text x="1166" y="292" font-size="11" font-family="ui-monospace,'Cascadia Mono',Consolas,'SF Mono',monospace" font-weight="400" fill="#638aaf" text-anchor="end" letter-spacing="2.0" opacity="0.6">2026-07-10</text><path d="M12.04 12.04 L1188.0 12.0 L1187.97 307.99 L11.98 307.96 Z" fill="none" stroke="#f0eee6" stroke-width="1.6" stroke-linecap="round" stroke-linejoin="round" opacity="1.0"/><path d="M14.06 11.06 L1190.0 11.0 L1189.95 306.99 L13.97 306.93 Z" transform="translate(1.6 1.2)" fill="none" stroke="#f0eee6" stroke-width="1.1" stroke-linecap="round" stroke-linejoin="round" opacity="0.22"/></svg>