<svg xmlns="http://www.w3.org/2000/svg" width="1200" height="320" viewBox="0 0 1200 320" role="img" aria-label="vrc-mod-guide — VRChat 改模资源库 · 中文教程 / 素体衣装 / 视频，含 B站与 reddit 本地存档" font-family="Georgia,'Iowan Old Style','Times New Roman',Times,serif"><rect width="1200" height="320" fill="#F4EFE6"/><text x="34" y="44" font-size="12" font-family="ui-monospace,'Cascadia Mono',Consolas,'SF Mono',monospace" font-weight="400" fill="#41586B" text-anchor="start" letter-spacing="2.0" opacity="0.9">INK LAB / 07 · card · sigil</text><path d="M34.04 56.0 L316.97 53.74 L317.06 53.82 L600.06 56.2 L600.04 56.26 L883.04 57.21 L882.97 57.29 L1166.02 56.02" fill="none" stroke="#41586B" stroke-width="1.2" stroke-linecap="round" stroke-linejoin="round" opacity="1.0"/><text x="34" y="120" font-size="42" font-family="Georgia,'Iowan Old Style','Times New Roman',Times,serif" font-weight="400" fill="#1C2430" text-anchor="start">vrc-mod-guide</text><path d="M33.99 131.98 L98.12 129.36 L98.07 129.27 L162.11 131.11 L162.06 131.09 L226.22 133.14 L226.19 133.05 L290.25 131.95" fill="none" stroke="#17715A" stroke-width="2.4" stroke-linecap="round" stroke-linejoin="round" opacity="1.0"/><text x="34" y="160" font-size="17" font-family="Georgia,'Iowan Old Style','Times New Roman',Times,serif" font-weight="400" fill="#1C2430" text-anchor="start" font-style="italic" opacity="0.92">VRChat 改模资源库 · 中文教程 / 素体衣装 / 视频，含 B站与 reddit</text><text x="34" y="186" font-size="17" font-family="Georgia,'Iowan Old Style','Times New Roman',Times,serif" font-weight="400" fill="#1C2430" text-anchor="start" font-style="italic" opacity="0.92">本地存档</text><path d="M33.99 167.98 L143.01 172.28 L142.95 172.34 L252.0 170.05 L252.03 169.99 L361.03 172.72 L361.03 172.79 L470.04 170.06" fill="none" stroke="#7A5D18" stroke-width="2.0" stroke-linecap="round" stroke-linejoin="round" opacity="1.0"/><text x="34" y="212" font-size="11" font-family="ui-monospace,'Cascadia Mono',Consolas,'SF Mono',monospace" font-weight="400" fill="#41586B" text-anchor="start" letter-spacing="2.0" opacity="0.9">LANG</text><text x="200" y="212" font-size="13" font-family="ui-monospace,'Cascadia Mono',Consolas,'SF Mono',monospace" font-weight="400" fill="#1C2430" text-anchor="start" opacity="0.9">JavaScript</text><text x="34" y="236" font-size="11" font-family="ui-monospace,'Cascadia Mono',Consolas,'SF Mono',monospace" font-weight="400" fill="#41586B" text-anchor="start" letter-spacing="2.0" opacity="0.9">LICENSE</text><text x="200" y="236" font-size="13" font-family="ui-monospace,'Cascadia Mono',Consolas,'SF Mono',monospace" font-weight="400" fill="#1C2430" text-anchor="start" opacity="0.9">none</text><text x="34" y="260" font-size="11" font-family="ui-monospace,'Cascadia Mono',Consolas,'SF Mono',monospace" font-weight="400" fill="#41586B" text-anchor="start" letter-spacing="2.0" opacity="0.9">RELEASES</text><text x="200" y="260" font-size="13" font-family="ui-monospace,'Cascadia Mono',Consolas,'SF Mono',monospace" font-weight="400" fill="#1C2430" text-anchor="start" opacity="0.9">0</text><text x="34" y="284" font-size="11" font-family="ui-monospace,'Cascadia Mono',Consolas,'SF Mono',monospace" font-weight="400" fill="#41586B" text-anchor="start" letter-spacing="2.0" opacity="0.9">PUSHED</text><text x="200" y="284" font-size="13" font-family="ui-monospace,'Cascadia Mono',Consolas,'SF Mono',monospace" font-weight="400" fill="#1C2430" text-anchor="start" opacity="0.9">2026-09-30</text><path d="M966.1 147.59 L960.89 150.02 L952.84 182.49 L926.94 203.15 L894.86 212.13 L862.77 200.7 L844.77 172.46 L839.15 139.85 L853.78 109.69 L881.97 92.4 L915.75 87.94 L944.14 107.16 L958.44 136.93" transform="translate(1.6 1.2)" fill="none" stroke="#17715A" stroke-width="1.4" stroke-linecap="round" stroke-linejoin="round" opacity="0.3"/><path d="M958.63 147.84 L957.35 150.05 L949.51 180.5 L925.87 201.07 L895.5 204.14 L868.03 193.42 L847.52 171.34 L842.3 140.31 L857.96 113.3 L882.57 94.18 L913.39 97.12 L941.17 109.96 L952.54 138.2" fill="none" stroke="#17715A" stroke-width="1.2" stroke-linecap="round" stroke-linejoin="round" opacity="1.0"/><path d="M899.95 149.93 L899.81 156.82 L899.88 156.82 L897.93 163.66 L897.93 163.71 L897.64 170.53 L897.55 170.56 L897.01 177.53" fill="none" stroke="#17715A" stroke-width="2.0" stroke-linecap="round" stroke-linejoin="round" opacity="1.0"/><path d="M899.99 149.94 L893.56 150.82 L893.61 150.77 L887.32 150.64 L887.32 150.67 L881.03 150.83 L880.97 150.9 L874.63 152.02" fill="none" stroke="#17715A" stroke-width="2.0" stroke-linecap="round" stroke-linejoin="round" opacity="1.0"/><path d="M899.99 149.99 L899.31 143.03 L899.26 143.04 L899.93 136.17 L899.96 136.04 L898.62 129.11 L898.66 129.22 L899.79 122.22" fill="none" stroke="#17715A" stroke-width="2.0" stroke-linecap="round" stroke-linejoin="round" opacity="1.0"/><path d="M899.94 149.96 L906.71 151.43 L906.66 151.46 L913.5 151.08 L913.55 151.08 L920.21 152.86 L920.23 152.83 L927.05 152.5" fill="none" stroke="#17715A" stroke-width="2.0" stroke-linecap="round" stroke-linejoin="round" opacity="1.0"/><circle cx="900.0" cy="150.0" r="4.16" fill="#17715A"/><text x="900" y="234" font-size="11" font-family="ui-monospace,'Cascadia Mono',Consolas,'SF Mono',monospace" font-weight="400" fill="#41586B" text-anchor="middle" letter-spacing="2.0" opacity="0.9">dwgx archive</text><text x="1166" y="252" font-size="30" font-family="Georgia,'Iowan Old Style','Times New Roman',Times,serif" font-weight="400" fill="#17715A" text-anchor="end">★4</text><text x="1166" y="274" font-size="11" font-family="ui-monospace,'Cascadia Mono',Consolas,'SF Mono',monospace" font-weight="400" fill="#41586B" text-anchor="end" letter-spacing="2.0" opacity="0.9">JAVASCRIPT · NONE</text><text x="1166" y="292" font-size="11" font-family="ui-monospace,'Cascadia Mono',Consolas,'SF Mono',monospace" font-weight="400" fill="#41586B" text-anchor="end" letter-spacing="2.0" opacity="0.6">2026-09-30</text><path d="M11.99 12.0 L1188.02 11.98 L1188.01 308.02 L12.0 308.03 Z" fill="none" stroke="#1C2430" stroke-width="1.6" stroke-linecap="round" stroke-linejoin="round" opacity="1.0"/><path d="M13.99 11.01 L1190.04 10.96 L1190.02 307.04 L13.99 307.06 Z" transform="translate(1.6 1.2)" fill="none" stroke="#1C2430" stroke-width="1.1" stroke-linecap="round" stroke-linejoin="round" opacity="0.22"/></svg>